<?xml version="1.0" encoding="UTF-8"?>
<svg width="62px" height="62px" viewBox="0 0 62 62" version="1.1" xmlns="http://www.w3.org/2000/svg" xmlns:xlink="http://www.w3.org/1999/xlink">
    <!-- Generator: Sketch 45 (43475) - http://www.bohemiancoding.com/sketch -->
    <title>walking-icon@1,5x</title>
    <desc>Created with Sketch.</desc>
    <defs></defs>
    <g id="Page-1" stroke="none" stroke-width="1" fill="none" fill-rule="evenodd">
        <g id="Walk-Overview-Copy" transform="translate(-129.000000, -501.000000)">
            <g id="walking-icon" transform="translate(129.000000, 501.000000)">
                <circle id="Oval-2" fill="#484C4E" cx="31" cy="31" r="31"></circle>
                <g id="Group" transform="translate(18.000000, 9.000000)" fill-rule="nonzero" fill="#FFFFFF">
                    <path d="M19.800612,4.15135491 C19.800612,6.44643238 17.9433765,8.30318886 15.6487781,8.30318886 C13.3537006,8.30318886 11.4969441,6.44643238 11.4969441,4.15135491 C11.4969441,1.85675648 13.3537006,0 15.6487781,0 C17.9433765,0 19.800612,1.85675648 19.800612,4.15135491 L19.800612,4.15135491 Z" id="Shape"></path>
                    <path d="M25.3392649,21.8777266 C24.5282513,21.5126986 19.1764238,18.8530722 19.1764238,18.8530722 C19.1764238,18.8530722 17.278949,14.807106 16.2973974,12.5934652 C15.3733305,10.509165 14.7084239,9.96641345 13.394419,9.96641345 L11.3671245,9.96641345 C10.3050943,9.96641345 9.91611432,10.3553934 9.26701601,10.7204214 L3.7858479,15.3829113 C3.30680856,15.6583589 2.99878626,16.0717698 2.812919,16.6557188 L1.63687742,24.5454967 C1.46681846,25.802975 2.13172506,26.3380619 2.88573298,26.4918335 C3.49411294,26.6216532 4.41003615,26.3136309 4.59638246,25.4293243 C4.74248946,24.6997474 5.85290264,18.2446923 5.85290264,18.2446923 L9.42941035,15.4959645 C8.83779676,18.2370276 8.23756047,21.236772 8.04259146,22.2590419 C7.70199449,24.0027451 8.56953473,25.3239356 9.25887234,26.3615348 C9.8830606,27.3023681 17.9759512,40.0582276 19.0384604,41.4440884 C20.1081553,42.8313863 21.0820423,43.5202449 22.5656271,42.692944 C23.8140036,41.9954627 23.6032263,40.4064892 22.9143677,39.2299686 C22.2255092,38.053448 14.0598046,24.7725613 14.0598046,24.7725613 L15.4298571,18.8530722 C15.4298571,18.8530722 16.378355,20.2073164 16.865059,20.969468 C17.0997882,21.3268314 17.3436193,21.4724593 17.9840949,21.8207209 C18.7381028,22.2346109 22.3955681,23.8968774 23.5059813,24.3998687 C24.4951976,24.8377107 25.7196221,25.0082487 26.2068051,24.1320857 C26.7011737,23.2640665 26.0774645,22.2183236 25.3392649,21.8777266 L25.3392649,21.8777266 Z" id="Shape"></path>
                    <path d="M7.2722962,27.2458414 L5.61817337,33.0762292 C5.61817337,33.0762292 2.16382069,38.0716515 1.20670009,39.466135 C0.48526685,40.5200215 -0.0584427994,41.8014518 1.17460446,42.7341414 C2.56142335,43.7798842 3.67231557,42.4174963 4.38560515,41.6064827 C5.04236808,40.8687622 7.71828183,37.1303392 8.47228975,36.1813622 C8.97528105,35.5408866 9.25072867,35.0062787 9.47012869,34.4707128 C9.60761298,34.1143075 10.1513226,32.6383873 10.4995842,31.6812667 L7.2722962,27.2458414 Z" id="Shape"></path>
                </g>
            </g>
        </g>
    </g>
</svg>